<svg width="269" height="102" viewBox="0 0 269 102" fill="none" xmlns="http://www.w3.org/2000/svg">
<path d="M8.16132 98L7.25132 95.508H2.91132L1.98732 98H0.43332L4.28332 87.948H5.97732L9.79932 98H8.16132ZM5.09532 89.628L3.37332 94.262H6.78932L5.09532 89.628ZM12.4868 94.206V98H11.0728V90.58H12.3888V92.148C12.9068 91.126 14.0268 90.482 15.2448 90.482V91.952C13.6488 91.868 12.4868 92.568 12.4868 94.206ZM19.3884 98.14C17.2464 98.14 15.8044 96.586 15.8044 94.248C15.8044 92.05 17.3024 90.44 19.3464 90.44C21.5584 90.44 23.0284 92.232 22.7764 94.64H17.2464C17.3584 96.152 18.1144 97.034 19.3604 97.034C20.4104 97.034 21.1384 96.46 21.3764 95.494H22.7764C22.4124 97.146 21.1384 98.14 19.3884 98.14ZM19.3184 91.504C18.1844 91.504 17.4144 92.316 17.2604 93.702H21.2784C21.2084 92.33 20.4664 91.504 19.3184 91.504ZM33.3656 90.58L29.6556 100.702H28.1156L29.1796 97.902L26.2536 90.58H27.7796L29.9356 96.236L31.9376 90.58H33.3656ZM37.2452 98.14C35.1452 98.14 33.6052 96.488 33.6052 94.29C33.6052 92.092 35.1452 90.44 37.2452 90.44C39.3452 90.44 40.8852 92.092 40.8852 94.29C40.8852 96.488 39.3452 98.14 37.2452 98.14ZM37.2452 96.894C38.4632 96.894 39.4292 95.914 39.4292 94.29C39.4292 92.666 38.4632 91.7 37.2452 91.7C36.0272 91.7 35.0752 92.666 35.0752 94.29C35.0752 95.914 36.0272 96.894 37.2452 96.894ZM46.9607 94.948V90.58H48.3747V98H47.0587V96.824C46.6667 97.594 45.7987 98.14 44.7907 98.14C43.2927 98.14 42.2567 97.258 42.2567 95.354V90.58H43.6707V95.074C43.6707 96.362 44.3147 96.894 45.2387 96.894C46.1907 96.894 46.9607 96.11 46.9607 94.948ZM59.1442 95.788C59.1442 97.244 58.0102 98.14 56.0362 98.14C54.0762 98.14 52.9142 97.174 52.7742 95.578H54.1322C54.1882 96.502 54.9302 97.076 56.0642 97.076C57.0582 97.076 57.7162 96.726 57.7162 96.026C57.7162 95.41 57.3382 95.144 56.4142 94.962L55.2102 94.738C53.8382 94.472 53.0682 93.772 53.0682 92.652C53.0682 91.35 54.2022 90.44 55.9242 90.44C57.7022 90.44 58.9062 91.392 59.0322 92.918H57.6742C57.5902 92.022 56.9322 91.504 55.9382 91.504C55.0422 91.504 54.4402 91.882 54.4402 92.526C54.4402 93.128 54.8182 93.408 55.7142 93.576L56.9742 93.814C58.4442 94.08 59.1442 94.724 59.1442 95.788ZM65.322 94.948V90.58H66.736V98H65.42V96.824C65.028 97.594 64.16 98.14 63.152 98.14C61.654 98.14 60.618 97.258 60.618 95.354V90.58H62.032V95.074C62.032 96.362 62.676 96.894 63.6 96.894C64.552 96.894 65.322 96.11 65.322 94.948ZM70.1137 94.206V98H68.6997V90.58H70.0157V92.148C70.5337 91.126 71.6537 90.482 72.8717 90.482V91.952C71.2757 91.868 70.1137 92.568 70.1137 94.206ZM77.0154 98.14C74.8734 98.14 73.4314 96.586 73.4314 94.248C73.4314 92.05 74.9294 90.44 76.9734 90.44C79.1854 90.44 80.6554 92.232 80.4034 94.64H74.8734C74.9854 96.152 75.7414 97.034 76.9874 97.034C78.0374 97.034 78.7654 96.46 79.0034 95.494H80.4034C80.0394 97.146 78.7654 98.14 77.0154 98.14ZM76.9454 91.504C75.8114 91.504 75.0414 92.316 74.8874 93.702H78.9054C78.8354 92.33 78.0934 91.504 76.9454 91.504ZM90.9925 90.58L87.2825 100.702H85.7425L86.8065 97.902L83.8805 90.58H85.4065L87.5625 96.236L89.5645 90.58H90.9925ZM94.8722 98.14C92.7722 98.14 91.2322 96.488 91.2322 94.29C91.2322 92.092 92.7722 90.44 94.8722 90.44C96.9722 90.44 98.5122 92.092 98.5122 94.29C98.5122 96.488 96.9722 98.14 94.8722 98.14ZM94.8722 96.894C96.0902 96.894 97.0562 95.914 97.0562 94.29C97.0562 92.666 96.0902 91.7 94.8722 91.7C93.6542 91.7 92.7022 92.666 92.7022 94.29C92.7022 95.914 93.6542 96.894 94.8722 96.894ZM104.588 94.948V90.58H106.002V98H104.686V96.824C104.294 97.594 103.426 98.14 102.418 98.14C100.92 98.14 99.8836 97.258 99.8836 95.354V90.58H101.298V95.074C101.298 96.362 101.942 96.894 102.866 96.894C103.818 96.894 104.588 96.11 104.588 94.948ZM117.023 98L115.343 92.484L113.649 98H112.221L110.079 90.58H111.465L112.963 95.984L114.643 90.58H116.043L117.695 95.998L119.193 90.58H120.593L118.437 98H117.023ZM126.008 98V96.852C125.546 97.678 124.72 98.14 123.628 98.14C122.088 98.14 121.08 97.258 121.08 95.9C121.08 94.444 122.242 93.688 124.454 93.688C124.888 93.688 125.238 93.702 125.84 93.772V93.226C125.84 92.162 125.266 91.56 124.286 91.56C123.25 91.56 122.62 92.176 122.578 93.212H121.29C121.36 91.546 122.55 90.44 124.286 90.44C126.12 90.44 127.184 91.476 127.184 93.24V98H126.008ZM122.424 95.858C122.424 96.628 122.998 97.132 123.908 97.132C125.098 97.132 125.84 96.39 125.84 95.256V94.654C125.294 94.584 124.902 94.57 124.538 94.57C123.124 94.57 122.424 94.99 122.424 95.858ZM130.489 93.814V98H129.075V90.58H130.391V91.812C130.895 90.986 131.735 90.44 132.757 90.44C134.283 90.44 135.291 91.42 135.291 93.198V98H133.877V93.674C133.877 92.4 133.317 91.686 132.267 91.686C131.301 91.686 130.489 92.498 130.489 93.814ZM141.327 96.628V97.874C140.893 98.07 140.515 98.14 140.067 98.14C138.695 98.14 137.743 97.398 137.743 95.76V91.784H136.105V90.58H137.743V88.382H139.157V90.58H141.397V91.784H139.157V95.438C139.157 96.46 139.647 96.824 140.403 96.824C140.739 96.824 141.033 96.768 141.327 96.628ZM149.858 96.628V97.874C149.424 98.07 149.046 98.14 148.598 98.14C147.226 98.14 146.274 97.398 146.274 95.76V91.784H144.636V90.58H146.274V88.382H147.688V90.58H149.928V91.784H147.688V95.438C147.688 96.46 148.178 96.824 148.934 96.824C149.27 96.824 149.564 96.768 149.858 96.628ZM154.181 98.14C152.081 98.14 150.541 96.488 150.541 94.29C150.541 92.092 152.081 90.44 154.181 90.44C156.281 90.44 157.821 92.092 157.821 94.29C157.821 96.488 156.281 98.14 154.181 98.14ZM154.181 96.894C155.399 96.894 156.365 95.914 156.365 94.29C156.365 92.666 155.399 91.7 154.181 91.7C152.963 91.7 152.011 92.666 152.011 94.29C152.011 95.914 152.963 96.894 154.181 96.894ZM161.656 94.29C161.656 92.036 162.944 90.44 164.946 90.44C165.94 90.44 166.808 90.944 167.326 91.854V87.948H168.74V98H167.424V96.67C166.892 97.608 165.996 98.14 164.946 98.14C162.944 98.14 161.656 96.516 161.656 94.29ZM163.126 94.29C163.126 95.942 163.994 96.88 165.226 96.88C166.43 96.88 167.326 95.9 167.326 94.262C167.326 92.596 166.402 91.686 165.226 91.686C163.994 91.686 163.126 92.61 163.126 94.29ZM173.758 98.14C171.616 98.14 170.174 96.586 170.174 94.248C170.174 92.05 171.672 90.44 173.716 90.44C175.928 90.44 177.398 92.232 177.146 94.64H171.616C171.728 96.152 172.484 97.034 173.73 97.034C174.78 97.034 175.508 96.46 175.746 95.494H177.146C176.782 97.146 175.508 98.14 173.758 98.14ZM173.688 91.504C172.554 91.504 171.784 92.316 171.63 93.702H175.648C175.578 92.33 174.836 91.504 173.688 91.504ZM180.077 98H178.649V87.948H180.077V98ZM185.092 98.14C182.95 98.14 181.508 96.586 181.508 94.248C181.508 92.05 183.006 90.44 185.05 90.44C187.262 90.44 188.732 92.232 188.48 94.64H182.95C183.062 96.152 183.818 97.034 185.064 97.034C186.114 97.034 186.842 96.46 187.08 95.494H188.48C188.116 97.146 186.842 98.14 185.092 98.14ZM185.022 91.504C183.888 91.504 183.118 92.316 182.964 93.702H186.982C186.912 92.33 186.17 91.504 185.022 91.504ZM194.142 96.628V97.874C193.708 98.07 193.33 98.14 192.882 98.14C191.51 98.14 190.558 97.398 190.558 95.76V91.784H188.92V90.58H190.558V88.382H191.972V90.58H194.212V91.784H191.972V95.438C191.972 96.46 192.462 96.824 193.218 96.824C193.554 96.824 193.848 96.768 194.142 96.628ZM198.408 98.14C196.266 98.14 194.824 96.586 194.824 94.248C194.824 92.05 196.322 90.44 198.366 90.44C200.578 90.44 202.048 92.232 201.796 94.64H196.266C196.378 96.152 197.134 97.034 198.38 97.034C199.43 97.034 200.158 96.46 200.396 95.494H201.796C201.432 97.146 200.158 98.14 198.408 98.14ZM198.338 91.504C197.204 91.504 196.434 92.316 196.28 93.702H200.298C200.228 92.33 199.486 91.504 198.338 91.504ZM210.411 96.628V97.874C209.977 98.07 209.599 98.14 209.151 98.14C207.779 98.14 206.827 97.398 206.827 95.76V91.784H205.189V90.58H206.827V88.382H208.241V90.58H210.481V91.784H208.241V95.438C208.241 96.46 208.731 96.824 209.487 96.824C209.823 96.824 210.117 96.768 210.411 96.628ZM213.245 93.814V98H211.831V87.948H213.245V91.77C213.735 90.972 214.491 90.44 215.513 90.44C217.039 90.44 218.047 91.42 218.047 93.198V98H216.633V93.674C216.633 92.4 216.073 91.686 215.023 91.686C214.057 91.686 213.245 92.498 213.245 93.814ZM221.646 88.858C221.646 89.39 221.226 89.796 220.624 89.796C220.022 89.796 219.588 89.39 219.588 88.858C219.588 88.312 220.022 87.92 220.624 87.92C221.226 87.92 221.646 88.312 221.646 88.858ZM221.338 98H219.924V90.58H221.338V98ZM229.181 95.788C229.181 97.244 228.047 98.14 226.073 98.14C224.113 98.14 222.951 97.174 222.811 95.578H224.169C224.225 96.502 224.967 97.076 226.101 97.076C227.095 97.076 227.753 96.726 227.753 96.026C227.753 95.41 227.375 95.144 226.451 94.962L225.247 94.738C223.875 94.472 223.105 93.772 223.105 92.652C223.105 91.35 224.239 90.44 225.961 90.44C227.739 90.44 228.943 91.392 229.069 92.918H227.711C227.627 92.022 226.969 91.504 225.975 91.504C225.079 91.504 224.477 91.882 224.477 92.526C224.477 93.128 224.855 93.408 225.751 93.576L227.011 93.814C228.481 94.08 229.181 94.724 229.181 95.788ZM235.373 88.858C235.373 89.39 234.953 89.796 234.351 89.796C233.749 89.796 233.315 89.39 233.315 88.858C233.315 88.312 233.749 87.92 234.351 87.92C234.953 87.92 235.373 88.312 235.373 88.858ZM235.065 98H233.651V90.58H235.065V98ZM241.214 96.628V97.874C240.78 98.07 240.402 98.14 239.954 98.14C238.582 98.14 237.63 97.398 237.63 95.76V91.784H235.992V90.58H237.63V88.382H239.044V90.58H241.284V91.784H239.044V95.438C239.044 96.46 239.534 96.824 240.29 96.824C240.626 96.824 240.92 96.768 241.214 96.628ZM245.48 98.14C243.338 98.14 241.896 96.586 241.896 94.248C241.896 92.05 243.394 90.44 245.438 90.44C247.65 90.44 249.12 92.232 248.868 94.64H243.338C243.45 96.152 244.206 97.034 245.452 97.034C246.502 97.034 247.23 96.46 247.468 95.494H248.868C248.504 97.146 247.23 98.14 245.48 98.14ZM245.41 91.504C244.276 91.504 243.506 92.316 243.352 93.702H247.37C247.3 92.33 246.558 91.504 245.41 91.504ZM251.786 98H250.372V90.58H251.688V91.812C252.192 90.958 252.99 90.44 254.012 90.44C255.104 90.44 255.93 91 256.266 91.98C256.784 91.028 257.638 90.44 258.772 90.44C260.298 90.44 261.278 91.434 261.278 93.198V98H259.864V93.646C259.864 92.414 259.318 91.686 258.282 91.686C257.316 91.686 256.532 92.498 256.532 93.744V98H255.118V93.646C255.118 92.414 254.572 91.686 253.536 91.686C252.556 91.686 251.786 92.498 251.786 93.744V98ZM263.784 90.538H262.44C262.496 88.928 263.798 87.808 265.562 87.808C267.382 87.808 268.6 88.886 268.6 90.342C268.6 91.196 268.124 91.84 267.354 92.498L266.528 93.17C265.842 93.758 265.688 94.136 265.8 95.242H264.848C264.54 93.968 264.554 93.338 265.366 92.624L266.206 91.882C266.738 91.406 267.046 91.056 267.046 90.468C267.046 89.67 266.43 89.068 265.422 89.068C264.47 89.068 263.826 89.67 263.784 90.538ZM266.416 97.02C266.416 97.622 265.926 98.07 265.296 98.07C264.666 98.07 264.176 97.622 264.176 97.02C264.176 96.39 264.652 95.942 265.296 95.942C265.94 95.942 266.416 96.39 266.416 97.02Z" fill="#949494"/>
<path d="M116.357 60H156.643V13.3333H116.357V60ZM123.071 20H149.929V53.3333H123.071V20ZM148.25 3.33333L144.893 0H128.107L124.75 3.33333H113V10H160V3.33333H148.25Z" fill="#F15A29"/>
</svg>
