<svg width="170" height="102" viewBox="0 0 170 102" fill="none" xmlns="http://www.w3.org/2000/svg">
<path d="M2.78434 98H1.24434V87.948H2.78434V98ZM9.03709 96.628V97.874C8.60309 98.07 8.22509 98.14 7.77709 98.14C6.40509 98.14 5.45309 97.398 5.45309 95.76V91.784H3.81509V90.58H5.45309V88.382H6.86709V90.58H9.10709V91.784H6.86709V95.438C6.86709 96.46 7.35709 96.824 8.11309 96.824C8.44909 96.824 8.74309 96.768 9.03709 96.628ZM13.3035 98.14C11.1615 98.14 9.71948 96.586 9.71948 94.248C9.71948 92.05 11.2175 90.44 13.2615 90.44C15.4735 90.44 16.9435 92.232 16.6915 94.64H11.1615C11.2735 96.152 12.0295 97.034 13.2755 97.034C14.3255 97.034 15.0535 96.46 15.2915 95.494H16.6915C16.3275 97.146 15.0535 98.14 13.3035 98.14ZM13.2335 91.504C12.0995 91.504 11.3295 92.316 11.1755 93.702H15.1935C15.1235 92.33 14.3815 91.504 13.2335 91.504ZM19.6088 98H18.1948V90.58H19.5108V91.812C20.0148 90.958 20.8128 90.44 21.8348 90.44C22.9268 90.44 23.7528 91 24.0888 91.98C24.6068 91.028 25.4608 90.44 26.5948 90.44C28.1208 90.44 29.1008 91.434 29.1008 93.198V98H27.6868V93.646C27.6868 92.414 27.1408 91.686 26.1048 91.686C25.1388 91.686 24.3548 92.498 24.3548 93.744V98H22.9408V93.646C22.9408 92.414 22.3948 91.686 21.3588 91.686C20.3788 91.686 19.6088 92.498 19.6088 93.744V98ZM33.3855 94.29C33.3855 92.036 34.6735 90.44 36.6755 90.44C37.6695 90.44 38.5375 90.944 39.0555 91.854V87.948H40.4695V98H39.1535V96.67C38.6215 97.608 37.7255 98.14 36.6755 98.14C34.6735 98.14 33.3855 96.516 33.3855 94.29ZM34.8555 94.29C34.8555 95.942 35.7235 96.88 36.9555 96.88C38.1595 96.88 39.0555 95.9 39.0555 94.262C39.0555 92.596 38.1315 91.686 36.9555 91.686C35.7235 91.686 34.8555 92.61 34.8555 94.29ZM45.4871 98.14C43.3451 98.14 41.9031 96.586 41.9031 94.248C41.9031 92.05 43.4011 90.44 45.4451 90.44C47.6571 90.44 49.1271 92.232 48.8751 94.64H43.3451C43.4571 96.152 44.2131 97.034 45.4591 97.034C46.5091 97.034 47.2371 96.46 47.4751 95.494H48.8751C48.5111 97.146 47.2371 98.14 45.4871 98.14ZM45.4171 91.504C44.2831 91.504 43.5131 92.316 43.3591 93.702H47.3771C47.3071 92.33 46.5651 91.504 45.4171 91.504ZM51.8064 98H50.3784V87.948H51.8064V98ZM56.8211 98.14C54.6791 98.14 53.2371 96.586 53.2371 94.248C53.2371 92.05 54.7351 90.44 56.7791 90.44C58.9911 90.44 60.4611 92.232 60.2091 94.64H54.6791C54.7911 96.152 55.5471 97.034 56.7931 97.034C57.8431 97.034 58.5711 96.46 58.8091 95.494H60.2091C59.8451 97.146 58.5711 98.14 56.8211 98.14ZM56.7511 91.504C55.6171 91.504 54.8471 92.316 54.6931 93.702H58.7111C58.6411 92.33 57.8991 91.504 56.7511 91.504ZM65.8711 96.628V97.874C65.4371 98.07 65.0591 98.14 64.6111 98.14C63.2391 98.14 62.2871 97.398 62.2871 95.76V91.784H60.6491V90.58H62.2871V88.382H63.7011V90.58H65.9411V91.784H63.7011V95.438C63.7011 96.46 64.1911 96.824 64.9471 96.824C65.2831 96.824 65.5771 96.768 65.8711 96.628ZM70.1375 98.14C67.9955 98.14 66.5535 96.586 66.5535 94.248C66.5535 92.05 68.0515 90.44 70.0955 90.44C72.3075 90.44 73.7775 92.232 73.5255 94.64H67.9955C68.1075 96.152 68.8635 97.034 70.1095 97.034C71.1595 97.034 71.8875 96.46 72.1255 95.494H73.5255C73.1615 97.146 71.8875 98.14 70.1375 98.14ZM70.0675 91.504C68.9335 91.504 68.1635 92.316 68.0095 93.702H72.0275C71.9575 92.33 71.2155 91.504 70.0675 91.504ZM74.3601 94.29C74.3601 92.036 75.6481 90.44 77.6501 90.44C78.6441 90.44 79.5121 90.944 80.0301 91.854V87.948H81.4441V98H80.1281V96.67C79.5961 97.608 78.7001 98.14 77.6501 98.14C75.6481 98.14 74.3601 96.516 74.3601 94.29ZM75.8301 94.29C75.8301 95.942 76.6981 96.88 77.9301 96.88C79.1341 96.88 80.0301 95.9 80.0301 94.262C80.0301 92.596 79.1061 91.686 77.9301 91.686C76.6981 91.686 75.8301 92.61 75.8301 94.29ZM92.2155 95.788C92.2155 97.244 91.0815 98.14 89.1075 98.14C87.1475 98.14 85.9855 97.174 85.8455 95.578H87.2035C87.2595 96.502 88.0015 97.076 89.1355 97.076C90.1295 97.076 90.7875 96.726 90.7875 96.026C90.7875 95.41 90.4095 95.144 89.4855 94.962L88.2815 94.738C86.9095 94.472 86.1395 93.772 86.1395 92.652C86.1395 91.35 87.2735 90.44 88.9955 90.44C90.7735 90.44 91.9775 91.392 92.1035 92.918H90.7455C90.6615 92.022 90.0035 91.504 89.0095 91.504C88.1135 91.504 87.5115 91.882 87.5115 92.526C87.5115 93.128 87.8895 93.408 88.7855 93.576L90.0455 93.814C91.5155 94.08 92.2155 94.724 92.2155 95.788ZM98.3933 94.948V90.58H99.8073V98H98.4913V96.824C98.0993 97.594 97.2313 98.14 96.2233 98.14C94.7253 98.14 93.6893 97.258 93.6893 95.354V90.58H95.1033V95.074C95.1033 96.362 95.7473 96.894 96.6713 96.894C97.6233 96.894 98.3933 96.11 98.3933 94.948ZM104.697 98.154C102.667 98.154 101.239 96.558 101.239 94.29C101.239 92.05 102.695 90.44 104.697 90.44C106.531 90.44 107.861 91.658 108.127 93.59H106.643C106.489 92.4 105.747 91.686 104.711 91.686C103.493 91.686 102.695 92.722 102.695 94.29C102.695 95.872 103.493 96.894 104.711 96.894C105.761 96.894 106.489 96.194 106.657 94.99H108.127C107.875 96.95 106.559 98.154 104.697 98.154ZM112.408 98.154C110.378 98.154 108.95 96.558 108.95 94.29C108.95 92.05 110.406 90.44 112.408 90.44C114.242 90.44 115.572 91.658 115.838 93.59H114.354C114.2 92.4 113.458 91.686 112.422 91.686C111.204 91.686 110.406 92.722 110.406 94.29C110.406 95.872 111.204 96.894 112.422 96.894C113.472 96.894 114.2 96.194 114.368 94.99H115.838C115.586 96.95 114.27 98.154 112.408 98.154ZM120.245 98.14C118.103 98.14 116.661 96.586 116.661 94.248C116.661 92.05 118.159 90.44 120.203 90.44C122.415 90.44 123.885 92.232 123.633 94.64H118.103C118.215 96.152 118.971 97.034 120.217 97.034C121.267 97.034 121.995 96.46 122.233 95.494H123.633C123.269 97.146 121.995 98.14 120.245 98.14ZM120.175 91.504C119.041 91.504 118.271 92.316 118.117 93.702H122.135C122.065 92.33 121.323 91.504 120.175 91.504ZM131.016 95.788C131.016 97.244 129.882 98.14 127.908 98.14C125.948 98.14 124.786 97.174 124.646 95.578H126.004C126.06 96.502 126.802 97.076 127.936 97.076C128.93 97.076 129.588 96.726 129.588 96.026C129.588 95.41 129.21 95.144 128.286 94.962L127.082 94.738C125.71 94.472 124.94 93.772 124.94 92.652C124.94 91.35 126.074 90.44 127.796 90.44C129.574 90.44 130.778 91.392 130.904 92.918H129.546C129.462 92.022 128.804 91.504 127.81 91.504C126.914 91.504 126.312 91.882 126.312 92.526C126.312 93.128 126.69 93.408 127.586 93.576L128.846 93.814C130.316 94.08 131.016 94.724 131.016 95.788ZM138.44 95.788C138.44 97.244 137.306 98.14 135.332 98.14C133.372 98.14 132.21 97.174 132.07 95.578H133.428C133.484 96.502 134.226 97.076 135.36 97.076C136.354 97.076 137.012 96.726 137.012 96.026C137.012 95.41 136.634 95.144 135.71 94.962L134.506 94.738C133.134 94.472 132.364 93.772 132.364 92.652C132.364 91.35 133.498 90.44 135.22 90.44C136.998 90.44 138.202 91.392 138.328 92.918H136.97C136.886 92.022 136.228 91.504 135.234 91.504C134.338 91.504 133.736 91.882 133.736 92.526C133.736 93.128 134.114 93.408 135.01 93.576L136.27 93.814C137.74 94.08 138.44 94.724 138.44 95.788ZM141.974 98H140.56V91.784H138.922V90.58H140.56V90.034C140.56 88.606 141.33 87.822 142.73 87.822C143.15 87.822 143.486 87.892 143.766 88.004V89.152C143.542 89.054 143.29 89.026 143.038 89.026C142.366 89.026 141.974 89.334 141.974 90.048V90.58H144.046V91.784H141.974V98ZM149.759 94.948V90.58H151.173V98H149.857V96.824C149.465 97.594 148.597 98.14 147.589 98.14C146.091 98.14 145.055 97.258 145.055 95.354V90.58H146.469V95.074C146.469 96.362 147.113 96.894 148.037 96.894C148.989 96.894 149.759 96.11 149.759 94.948ZM154.564 98H153.136V87.948H154.564V98ZM157.955 98H156.527V87.948H157.955V98ZM166.078 90.58L162.368 100.702H160.828L161.892 97.902L158.966 90.58H160.492L162.648 96.236L164.65 90.58H166.078ZM168.51 95.242H167.432L167.096 87.948H168.846L168.51 95.242ZM169.084 97.02C169.084 97.622 168.608 98.07 167.978 98.07C167.348 98.07 166.872 97.622 166.872 97.02C166.872 96.39 167.348 95.942 167.978 95.942C168.622 95.942 169.084 96.39 169.084 97.02Z" fill="#949494"/>
<path d="M110 22.001L106.868 27.4385L68.8831 5.4374L72.0146 0L81.5344 5.50026L85.7933 4.33735L99.3528 12.1949L100.511 16.5008L110 22.001ZM65 53.714V15.9979H80.8768L102.578 28.5699V53.714C102.578 55.3811 101.918 56.98 100.744 58.1589C99.5693 59.3377 97.9763 60 96.3152 60H71.263C69.602 60 68.009 59.3377 66.8344 58.1589C65.6599 56.98 65 55.3811 65 53.714ZM71.263 53.714H96.3152V32.3415L78.9666 22.2839H71.263V53.714Z" fill="#FDDF05"/>
</svg>
