<svg width="221" height="114" viewBox="0 0 221 114" fill="none" xmlns="http://www.w3.org/2000/svg">
<path d="M110.532 3L118.411 8.748L128.166 8.73L131.161 18.012L139.063 23.73L136.032 33L139.063 42.27L131.161 47.988L128.166 57.27L118.411 57.252L110.532 63L102.652 57.252L92.8975 57.27L89.902 47.988L82 42.27L85.0315 33L82 23.73L89.902 18.012L92.8975 8.73L102.652 8.748L110.532 3Z" stroke="#FBDD01" stroke-width="5" stroke-linecap="round" stroke-linejoin="round"/>
<path d="M100.032 33L107.532 40.5L122.532 25.5" stroke="#FBDD01" stroke-width="5" stroke-linecap="round" stroke-linejoin="round"/>
<path d="M5.47869 106.339H3.67069V110.083H1.23869V98.5953H5.47869C8.27869 98.5953 10.0227 99.9233 10.0227 102.419C10.0227 104.915 8.27869 106.339 5.47869 106.339ZM5.46269 100.643H3.67069V104.291H5.46269C6.83869 104.291 7.60669 103.571 7.60669 102.435C7.60669 101.299 6.83869 100.643 5.46269 100.643ZM13.7082 105.939V110.083H11.4842V101.539H13.5322V103.187C14.1562 102.099 15.4842 101.443 16.8602 101.443V103.747C14.9722 103.603 13.7082 104.051 13.7082 105.939ZM21.7289 110.243C19.2489 110.243 17.3929 108.291 17.3929 105.811C17.3929 103.315 19.2489 101.379 21.7289 101.379C24.2089 101.379 26.0649 103.315 26.0649 105.811C26.0649 108.291 24.2089 110.243 21.7289 110.243ZM21.7289 108.275C22.8329 108.275 23.7769 107.395 23.7769 105.811C23.7769 104.227 22.8329 103.363 21.7289 103.363C20.6249 103.363 19.6809 104.227 19.6809 105.811C19.6809 107.395 20.6249 108.275 21.7289 108.275ZM26.9242 105.811C26.9242 103.283 28.4122 101.379 30.7162 101.379C31.7402 101.379 32.6042 101.827 33.2442 102.643V98.5953H35.4522V110.083H33.4202V108.851C32.7482 109.747 31.8202 110.243 30.7162 110.243C28.4122 110.243 26.9242 108.307 26.9242 105.811ZM29.2122 105.811C29.2122 107.411 30.1242 108.259 31.2122 108.259C32.3162 108.259 33.2282 107.395 33.2282 105.779C33.2282 104.163 32.3002 103.347 31.2122 103.347C30.1242 103.347 29.2122 104.179 29.2122 105.811ZM42.6373 106.483V101.539H44.8453V110.083H42.8133V108.963C42.3493 109.715 41.4053 110.243 40.3173 110.243C38.6053 110.243 37.3573 109.203 37.3573 106.979V101.539H39.5813V106.547C39.5813 107.747 40.1733 108.275 41.0693 108.275C41.8693 108.275 42.6373 107.635 42.6373 106.483ZM50.4436 110.243C47.9796 110.243 46.2836 108.419 46.2836 105.811C46.2836 103.251 48.0436 101.379 50.4436 101.379C52.6676 101.379 54.3156 102.883 54.5876 105.187H52.2516C52.1396 104.051 51.4516 103.347 50.4436 103.347C49.2916 103.347 48.5556 104.291 48.5556 105.811C48.5556 107.347 49.2756 108.275 50.4436 108.275C51.4676 108.275 52.1236 107.603 52.2516 106.435H54.5876C54.3316 108.787 52.7316 110.243 50.4436 110.243ZM61.3274 107.923V109.859C60.7834 110.131 60.2714 110.243 59.6154 110.243C57.8554 110.243 56.7514 109.235 56.7514 107.315V103.443H55.0234V101.539H56.7514V99.0113H58.9594V101.539H61.4074V103.443H58.9594V106.803C58.9594 107.795 59.4074 108.195 60.2074 108.195C60.6234 108.195 61.0074 108.099 61.3274 107.923ZM73.9812 110.083L73.1172 107.619H68.6532L67.7732 110.083H65.3252L69.6452 98.5953H72.3012L76.5892 110.083H73.9812ZM70.9092 101.251L69.3412 105.683H72.4452L70.9092 101.251ZM76.7523 105.811C76.7523 103.283 78.2403 101.379 80.5443 101.379C81.5683 101.379 82.4323 101.827 83.0723 102.643V98.5953H85.2803V110.083H83.2483V108.851C82.5763 109.747 81.6483 110.243 80.5443 110.243C78.2403 110.243 76.7523 108.307 76.7523 105.811ZM79.0403 105.811C79.0403 107.411 79.9523 108.259 81.0403 108.259C82.1443 108.259 83.0563 107.395 83.0563 105.779C83.0563 104.163 82.1283 103.347 81.0403 103.347C79.9523 103.347 79.0403 104.179 79.0403 105.811ZM86.7054 105.811C86.7054 103.283 88.1934 101.379 90.4974 101.379C91.5214 101.379 92.3854 101.827 93.0254 102.643V98.5953H95.2334V110.083H93.2014V108.851C92.5294 109.747 91.6014 110.243 90.4974 110.243C88.1934 110.243 86.7054 108.307 86.7054 105.811ZM88.9934 105.811C88.9934 107.411 89.9054 108.259 90.9934 108.259C92.0974 108.259 93.0094 107.395 93.0094 105.779C93.0094 104.163 92.0814 103.347 90.9934 103.347C89.9054 103.347 88.9934 104.179 88.9934 105.811ZM100.931 110.227C98.3706 110.227 96.6586 108.451 96.6586 105.779C96.6586 103.235 98.4346 101.379 100.899 101.379C103.603 101.379 105.395 103.571 104.995 106.355H98.9306C99.0746 107.747 99.7466 108.515 100.883 108.515C101.859 108.515 102.515 108.035 102.771 107.187H104.979C104.499 109.123 103.011 110.227 100.931 110.227ZM100.851 103.011C99.8106 103.011 99.1546 103.683 98.9626 104.947H102.643C102.579 103.763 101.907 103.011 100.851 103.011ZM105.768 105.811C105.768 103.283 107.256 101.379 109.56 101.379C110.584 101.379 111.448 101.827 112.088 102.643V98.5953H114.296V110.083H112.264V108.851C111.592 109.747 110.664 110.243 109.56 110.243C107.256 110.243 105.768 108.307 105.768 105.811ZM108.056 105.811C108.056 107.411 108.968 108.259 110.056 108.259C111.16 108.259 112.072 107.395 112.072 105.779C112.072 104.163 111.144 103.347 110.056 103.347C108.968 103.347 108.056 104.179 108.056 105.811ZM128.633 106.515C128.633 108.707 126.873 110.243 123.993 110.243C121.097 110.243 119.289 108.691 119.113 106.259H121.577C121.641 107.523 122.457 108.339 123.945 108.339C125.177 108.339 126.057 107.795 126.057 106.867C126.057 106.147 125.497 105.715 124.521 105.523L122.633 105.155C120.889 104.819 119.545 103.875 119.545 101.971C119.545 99.9233 121.353 98.4513 123.833 98.4513C126.409 98.4513 128.297 99.9553 128.457 102.355H125.993C125.913 101.155 125.081 100.339 123.865 100.339C122.681 100.339 122.009 101.011 122.009 101.811C122.009 102.595 122.729 102.931 123.561 103.091L125.529 103.491C127.545 103.891 128.633 104.819 128.633 106.515ZM135.356 106.483V101.539H137.564V110.083H135.532V108.963C135.068 109.715 134.124 110.243 133.036 110.243C131.324 110.243 130.076 109.203 130.076 106.979V101.539H132.3V106.547C132.3 107.747 132.892 108.275 133.788 108.275C134.588 108.275 135.356 107.635 135.356 106.483ZM143.162 110.243C140.698 110.243 139.002 108.419 139.002 105.811C139.002 103.251 140.762 101.379 143.162 101.379C145.386 101.379 147.034 102.883 147.306 105.187H144.97C144.858 104.051 144.17 103.347 143.162 103.347C142.01 103.347 141.274 104.291 141.274 105.811C141.274 107.347 141.994 108.275 143.162 108.275C144.186 108.275 144.842 107.603 144.97 106.435H147.306C147.05 108.787 145.45 110.243 143.162 110.243ZM152.303 110.243C149.839 110.243 148.143 108.419 148.143 105.811C148.143 103.251 149.903 101.379 152.303 101.379C154.527 101.379 156.175 102.883 156.447 105.187H154.111C153.999 104.051 153.311 103.347 152.303 103.347C151.151 103.347 150.415 104.291 150.415 105.811C150.415 107.347 151.135 108.275 152.303 108.275C153.327 108.275 153.983 107.603 154.111 106.435H156.447C156.191 108.787 154.591 110.243 152.303 110.243ZM161.556 110.227C158.996 110.227 157.284 108.451 157.284 105.779C157.284 103.235 159.06 101.379 161.524 101.379C164.228 101.379 166.02 103.571 165.62 106.355H159.556C159.7 107.747 160.372 108.515 161.508 108.515C162.484 108.515 163.14 108.035 163.396 107.187H165.604C165.124 109.123 163.636 110.227 161.556 110.227ZM161.476 103.011C160.436 103.011 159.78 103.683 159.588 104.947H163.268C163.204 103.763 162.532 103.011 161.476 103.011ZM174.325 107.347C174.325 109.139 172.965 110.243 170.533 110.243C168.101 110.243 166.741 109.075 166.565 107.171H168.693C168.709 108.051 169.461 108.611 170.565 108.611C171.429 108.611 172.085 108.339 172.085 107.731C172.085 107.187 171.733 106.963 170.917 106.803L169.381 106.515C167.845 106.243 166.917 105.395 166.917 104.067C166.917 102.483 168.277 101.379 170.405 101.379C172.549 101.379 174.021 102.515 174.181 104.355H172.053C171.973 103.523 171.349 103.011 170.405 103.011C169.589 103.011 169.045 103.315 169.045 103.859C169.045 104.371 169.397 104.579 170.165 104.723L171.813 105.027C173.477 105.347 174.325 106.115 174.325 107.347ZM183.06 107.347C183.06 109.139 181.7 110.243 179.268 110.243C176.836 110.243 175.476 109.075 175.3 107.171H177.428C177.444 108.051 178.196 108.611 179.3 108.611C180.164 108.611 180.82 108.339 180.82 107.731C180.82 107.187 180.468 106.963 179.652 106.803L178.116 106.515C176.58 106.243 175.652 105.395 175.652 104.067C175.652 102.483 177.012 101.379 179.14 101.379C181.284 101.379 182.756 102.515 182.916 104.355H180.788C180.708 103.523 180.084 103.011 179.14 103.011C178.324 103.011 177.78 103.315 177.78 103.859C177.78 104.371 178.132 104.579 178.9 104.723L180.548 105.027C182.212 105.347 183.06 106.115 183.06 107.347ZM187.43 110.083H185.222V103.443H183.494V101.539H185.222V101.075C185.222 99.3793 186.134 98.4193 187.91 98.4193C188.454 98.4193 188.918 98.5153 189.286 98.6753V100.435C189.046 100.339 188.726 100.291 188.438 100.291C187.83 100.291 187.43 100.531 187.43 101.123V101.539H189.654V103.443H187.43V110.083ZM195.997 106.483V101.539H198.205V110.083H196.173V108.963C195.709 109.715 194.765 110.243 193.677 110.243C191.965 110.243 190.717 109.203 190.717 106.979V101.539H192.941V106.547C192.941 107.747 193.533 108.275 194.429 108.275C195.229 108.275 195.997 107.635 195.997 106.483ZM202.443 110.083H200.203V98.5953H202.443V110.083ZM206.677 110.083H204.437V98.5953H206.677V110.083ZM216.368 101.539L212.208 113.171H209.792L211.008 109.987L207.648 101.539H210.048L212.192 107.395L214.144 101.539H216.368ZM219.472 106.627H217.792L217.232 98.5953H220.048L219.472 106.627ZM220.176 108.707C220.176 109.555 219.52 110.163 218.64 110.163C217.76 110.163 217.104 109.555 217.104 108.707C217.104 107.859 217.744 107.235 218.64 107.235C219.536 107.235 220.176 107.859 220.176 108.707Z" fill="#949494"/>
</svg>
