<svg width="7" height="7" viewBox="0 0 7 7" fill="none" xmlns="http://www.w3.org/2000/svg">
<path d="M4.51261 0.909992C4.72209 0.700592 5.00617 0.582984 5.30236 0.583038C5.59855 0.583093 5.88258 0.700807 6.09198 0.910283C6.30138 1.11976 6.41899 1.40384 6.41894 1.70003C6.41888 1.99622 6.30117 2.28026 6.09169 2.48966L5.95519 2.62616L4.37611 1.04708L4.51261 0.909992ZM3.96369 1.45949L0.962443 4.46016C0.921933 4.50085 0.894336 4.5526 0.88311 4.60891L0.58911 6.06724C0.579518 6.11437 0.581732 6.16315 0.595554 6.20922C0.609376 6.25529 0.634376 6.29722 0.668329 6.33129C0.702282 6.36536 0.744134 6.3905 0.790157 6.40448C0.83618 6.41846 0.884945 6.42084 0.93211 6.41141L2.39278 6.11974C2.44916 6.10835 2.50091 6.08055 2.54153 6.03983L5.54278 3.03858L3.96369 1.45949Z" fill="#E6E6E6"/>
</svg>
