<svg width="14" height="14" viewBox="0 0 14 14" fill="none" xmlns="http://www.w3.org/2000/svg">
<path d="M7 0C3.13337 0 0 3.13425 0 7C0 10.8658 3.13337 14 7 14C10.8666 14 14 10.8658 14 7C14 3.13425 10.8666 0 7 0ZM10.2436 9.00638C10.4077 9.17044 10.4999 9.39297 10.4999 9.625C10.4999 9.85703 10.4077 10.0796 10.2436 10.2436C10.0796 10.4077 9.85703 10.4999 9.625 10.4999C9.39297 10.4999 9.17044 10.4077 9.00638 10.2436L7 8.23725L4.99362 10.2436C4.91255 10.3252 4.81616 10.3899 4.71 10.434C4.60383 10.4782 4.48998 10.5009 4.375 10.5009C4.26002 10.5009 4.14617 10.4782 4.04 10.434C3.93384 10.3899 3.83745 10.3252 3.75638 10.2436C3.59234 10.0795 3.50019 9.85702 3.50019 9.625C3.50019 9.39298 3.59234 9.17046 3.75638 9.00638L5.76275 7L3.75638 4.99362C3.59231 4.82956 3.50013 4.60703 3.50013 4.375C3.50013 4.14297 3.59231 3.92044 3.75638 3.75638C3.92044 3.59231 4.14297 3.50013 4.375 3.50013C4.60703 3.50013 4.82956 3.59231 4.99362 3.75638L7 5.76275L9.00638 3.75638C9.17044 3.59231 9.39297 3.50013 9.625 3.50013C9.85703 3.50013 10.0796 3.59231 10.2436 3.75638C10.4077 3.92044 10.4999 4.14297 10.4999 4.375C10.4999 4.60703 10.4077 4.82956 10.2436 4.99362L8.23725 7L10.2436 9.00638Z" fill="#F24822"/>
</svg>
