<svg width="22" height="22" viewBox="0 0 22 22" fill="none" xmlns="http://www.w3.org/2000/svg">
<rect width="22" height="22" fill="#C0C0C0"/>
<g clip-path="url(#clip0_31_185)">
<rect width="393" height="852" transform="translate(-35 -778)" fill="white"/>
<path d="M0 0H22V22H0V0ZM2.2 19.8H17.1446L7.7 10.3554L2.2 15.8554V19.8ZM19.8 19.3446V2.2H2.2V12.7446L7.7 7.2446L19.8 19.3446ZM14.9017 5.5C14.61 5.5 14.3302 5.61589 14.1239 5.82218C13.9176 6.02847 13.8017 6.30826 13.8017 6.6C13.8017 6.89174 13.9176 7.17153 14.1239 7.37782C14.3302 7.58411 14.61 7.7 14.9017 7.7C15.1934 7.7 15.4732 7.58411 15.6795 7.37782C15.8858 7.17153 16.0017 6.89174 16.0017 6.6C16.0017 6.30826 15.8858 6.02847 15.6795 5.82218C15.4732 5.61589 15.1934 5.5 14.9017 5.5ZM11.6017 6.6C11.6017 5.72479 11.9494 4.88542 12.5682 4.26655C13.1871 3.64768 14.0265 3.3 14.9017 3.3C15.7769 3.3 16.6163 3.64768 17.2352 4.26655C17.854 4.88542 18.2017 5.72479 18.2017 6.6C18.2017 7.47521 17.854 8.31458 17.2352 8.93345C16.6163 9.55232 15.7769 9.9 14.9017 9.9C14.0265 9.9 13.1871 9.55232 12.5682 8.93345C11.9494 8.31458 11.6017 7.47521 11.6017 6.6Z" fill="#BEBEBE"/>
</g>
<defs>
<clipPath id="clip0_31_185">
<rect width="393" height="852" fill="white" transform="translate(-35 -778)"/>
</clipPath>
</defs>
</svg>
