<svg width="388" height="425" viewBox="0 0 388 425" fill="none" xmlns="http://www.w3.org/2000/svg">
<path d="M113.545 314.992L190.348 278.698L269.374 314.992C269.374 314.992 203.599 430.313 192.717 416.39C181.835 402.468 198.253 449.183 113.545 314.992Z" fill="url(#paint0_linear_31_114)"/>
<path d="M177.621 87.6227L182.611 85.3792C184.369 84.5975 186.203 84.0002 188.084 83.5969C184.395 84.3425 180.858 85.7034 177.621 87.6227ZM179.885 100.455L183.534 98.8402C184.911 97.9791 186.381 97.2758 187.916 96.7434C185.007 97.3996 182.27 98.6644 179.885 100.455ZM199.49 96.4499C198.761 96.21 198.019 96.014 197.267 95.8628C197.837 95.9845 198.397 96.1457 198.945 96.3451C199.381 96.4781 199.808 96.6392 200.224 96.8273L204.417 98.7353L208.736 100.643C206.038 98.5193 202.865 97.0805 199.49 96.4499Z" fill="white"/>
<path d="M387.651 322.415L362.343 167.739C361.727 163.778 360.122 160.036 357.678 156.859C355.234 153.682 352.028 151.172 348.358 149.56L218.067 91.0405L210.435 87.6018L205.486 85.3793C203.743 84.5978 201.923 84.0005 200.056 83.5971L199.196 83.4503L198.462 83.3245L197.267 83.1567H195.967H195.296H192.759H192.109H190.809L189.593 83.3245L188.859 83.4503L188.084 83.5971C186.203 84.0004 184.369 84.5976 182.611 85.3793L177.621 87.6228L170.618 90.7679L39.6558 149.581C35.988 151.191 32.7844 153.698 30.3403 156.871C27.8962 160.044 26.2903 163.782 25.6706 167.739L0.342038 322.415C-1.37728 333.087 3.46617 344.263 13.0482 351.622C18.7878 356.154 25.8647 358.66 33.1769 358.751C37.0776 358.765 40.9367 357.95 44.4992 356.361L116.648 323.967L164.16 408.297C169.695 418.11 181.185 424.211 194.143 424.211C207.08 424.211 218.591 418.11 224.126 408.297L271.576 324.071L343.493 356.361C347.056 357.95 350.915 358.765 354.816 358.751C362.128 358.66 369.205 356.154 374.944 351.622C384.548 344.263 389.391 333.087 387.651 322.415ZM181.626 100.161C182.237 99.6921 182.874 99.2581 183.534 98.8613L179.885 100.476C182.274 98.6754 185.019 97.4032 187.937 96.7436C188.872 96.4027 189.832 96.1362 190.809 95.9468L191.501 95.821C192.111 95.7177 192.728 95.6547 193.346 95.6323H194.73C195.356 95.6536 195.979 95.7167 196.596 95.821L197.309 95.9468C198.061 96.098 198.803 96.294 199.532 96.5339C202.922 97.158 206.11 98.5972 208.82 100.727L204.501 98.8193C205.171 99.2111 205.815 99.6453 206.43 100.119C211.022 103.663 215.509 110.016 214.335 117.25L193.996 241.125L173.721 117.208C172.547 110.037 177.034 103.684 181.626 100.14V100.161ZM212.469 401.734C209.303 407.333 202.278 410.834 194.164 410.834C186.05 410.834 178.984 407.333 175.839 401.734L128.935 318.452L187.476 292.18C189.861 291.143 192.063 289.727 193.996 287.987C195.941 289.723 198.149 291.138 200.538 292.18L259.247 318.557L212.469 401.734ZM186.616 273.98C186.763 274.882 186.972 275.763 187.203 276.643C185.993 278.398 184.315 279.779 182.359 280.627L122.686 307.402L95.4289 258.884C94.4518 257.222 93.9367 255.329 93.9367 253.401C93.9367 251.473 94.4518 249.58 95.4289 247.918L162.776 128.404L186.616 273.98ZM39.3203 344.829C32.6317 347.827 25.3561 345.123 20.7433 341.579C16.1304 338.036 11.6644 331.704 12.8386 324.47L38.1461 169.836C38.4295 167.939 39.1926 166.146 40.3631 164.627C41.5337 163.108 43.0729 161.913 44.8347 161.155L157.366 110.624L83.6872 241.334C81.5649 245.002 80.4474 249.164 80.4474 253.401C80.4474 257.638 81.5649 261.8 83.6872 265.468L110.4 312.896L39.3203 344.829ZM265.537 307.486L205.717 280.627C203.765 279.773 202.088 278.394 200.874 276.643C201.121 275.768 201.317 274.879 201.461 273.98L225.343 127.901L292.941 247.855C293.91 249.52 294.42 251.412 294.42 253.338C294.42 255.264 293.91 257.156 292.941 258.821L265.537 307.486ZM367.27 341.579C362.658 345.123 355.361 347.869 348.672 344.829L277.824 313.022L304.599 265.468C306.721 261.8 307.839 257.638 307.839 253.401C307.839 249.164 306.721 245.002 304.599 241.334L231.025 110.75L343.179 161.071C344.949 161.84 346.494 163.048 347.664 164.583C348.835 166.117 349.594 167.925 349.868 169.836L375.175 324.512C376.349 331.704 371.862 338.057 367.27 341.579Z" fill="white"/>
<path d="M214.292 117.27L193.996 241.124L173.721 117.207C172.546 109.973 177.033 103.62 181.625 100.077C182.236 99.6078 182.873 99.1738 183.533 98.7769C184.911 97.9159 186.381 97.2126 187.916 96.6802C188.859 96.3596 189.827 96.1142 190.809 95.9463L191.501 95.8205C192.111 95.7172 192.728 95.6542 193.346 95.6318H194.73C195.355 95.6532 195.979 95.7162 196.596 95.8205L197.309 95.9463C197.878 96.0681 198.439 96.2292 198.986 96.4286C199.423 96.5616 199.85 96.7227 200.265 96.9108L204.459 98.8189C205.129 99.2107 205.773 99.6449 206.388 100.119C210.98 103.683 215.467 110.036 214.292 117.27Z" fill="url(#paint1_linear_31_114)"/>
<path d="M238.636 58.8978C237.995 58.8881 237.366 58.7319 236.795 58.4412C236.225 58.1504 235.728 57.7328 235.344 57.2204C224.357 43.5707 209.68 36.0644 193.996 36.0644C178.313 36.0644 163.72 43.5707 152.649 57.2204C152.276 57.7399 151.785 58.1631 151.216 58.4551C150.647 58.747 150.017 58.8993 149.378 58.8993C148.739 58.8993 148.108 58.747 147.54 58.4551C146.971 58.1631 146.48 57.7399 146.107 57.2204C145.219 56.0581 144.739 54.6362 144.739 53.1737C144.739 51.7113 145.219 50.2893 146.107 49.127C158.897 33.3177 175.923 24.6162 193.996 24.6162C212.07 24.6162 229.096 33.3177 241.907 49.127C242.784 50.2936 243.259 51.7139 243.259 53.1737C243.259 54.6336 242.784 56.0539 241.907 57.2204C241.525 57.7301 241.032 58.146 240.465 58.4366C239.898 58.7272 239.273 58.885 238.636 58.8978Z" fill="white"/>
<path d="M220.164 72.2741C219.527 72.2613 218.901 72.1036 218.335 71.8129C217.768 71.5223 217.275 71.1064 216.893 70.5967C204.312 55.039 183.764 55.039 171.163 70.5967C170.788 71.1163 170.295 71.5394 169.725 71.8313C169.154 72.1231 168.522 72.2753 167.882 72.2753C167.241 72.2753 166.609 72.1231 166.039 71.8313C165.468 71.5394 164.975 71.1163 164.6 70.5967C163.724 69.4334 163.25 68.0168 163.25 66.5605C163.25 65.1043 163.724 63.6876 164.6 62.5243C180.829 42.4795 207.227 42.4795 223.435 62.5243C224.321 63.6834 224.8 65.1017 224.8 66.5605C224.8 68.0194 224.321 69.4377 223.435 70.5967C223.053 71.1064 222.56 71.5223 221.993 71.8129C221.426 72.1036 220.801 72.2613 220.164 72.2741Z" fill="white"/>
<path d="M258.345 44.3879C257.708 44.375 257.083 44.2173 256.516 43.9267C255.949 43.636 255.456 43.2201 255.074 42.7105C221.401 1.13224 166.613 1.13224 132.94 42.7105C132.562 43.2261 132.068 43.6455 131.498 43.9346C130.928 44.2237 130.297 44.3743 129.658 44.3743C129.019 44.3743 128.389 44.2237 127.819 43.9346C127.249 43.6455 126.755 43.2261 126.377 42.7105C125.499 41.5439 125.024 40.1236 125.024 38.6638C125.024 37.2039 125.499 35.7836 126.377 34.6171C144.451 12.2869 168.479 0 193.996 0C219.514 0 243.563 12.2869 261.637 34.6171C262.515 35.7836 262.989 37.2039 262.989 38.6638C262.989 40.1236 262.515 41.5439 261.637 42.7105C261.253 43.2229 260.756 43.6405 260.186 43.9312C259.615 44.222 258.986 44.3782 258.345 44.3879Z" fill="white"/>
<defs>
<linearGradient id="paint0_linear_31_114" x1="191.459" y1="417.543" x2="191.459" y2="278.698" gradientUnits="userSpaceOnUse">
<stop offset="0.01" stop-color="#FFF200"/>
<stop offset="0.35" stop-color="#FFF001"/>
<stop offset="0.5" stop-color="#FEE803"/>
<stop offset="0.62" stop-color="#FDDC06"/>
<stop offset="0.72" stop-color="#FBC90B"/>
<stop offset="0.81" stop-color="#F9B211"/>
<stop offset="0.89" stop-color="#F69519"/>
<stop offset="0.96" stop-color="#F37322"/>
<stop offset="1" stop-color="#F15A29"/>
</linearGradient>
<linearGradient id="paint1_linear_31_114" x1="193.996" y1="95.6109" x2="193.996" y2="241.187" gradientUnits="userSpaceOnUse">
<stop offset="0.01" stop-color="#FFF200"/>
<stop offset="0.15" stop-color="#FFED01"/>
<stop offset="0.32" stop-color="#FDDF05"/>
<stop offset="0.49" stop-color="#FBC80B"/>
<stop offset="0.67" stop-color="#F8A714"/>
<stop offset="0.86" stop-color="#F47D20"/>
<stop offset="1" stop-color="#F15A29"/>
</linearGradient>
</defs>
</svg>
